<svg width="82" height="25" viewBox="0 0 82 25" fill="none" xmlns="http://www.w3.org/2000/svg">
<path d="M3.76 24.76C2.8 24.76 1.93333 24.4933 1.16 23.96C0.386666 23.4 0 22.4933 0 21.24C0 20.4133 0.133333 19.4533 0.4 18.36C0.693333 17.2667 1.05333 16.1467 1.48 15C1.90667 13.8267 2.34667 12.7467 2.8 11.76C3.28 10.7467 3.70667 9.92 4.08 9.28C4.66667 8.34667 5.32 7.77333 6.04 7.56C6.78667 7.34667 7.69333 7.24 8.76 7.24C9.53333 7.24 10.1733 7.33333 10.68 7.52C11.1867 7.68 11.2667 7.86667 10.92 8.08C10.4133 8.42667 9.76 9.2 8.96 10.4C8.16 11.6 7.38667 12.9467 6.64 14.44C6.42667 14.8667 6.16 15.44 5.84 16.16C5.52 16.8533 5.2 17.6 4.88 18.4C4.58667 19.1733 4.33333 19.92 4.12 20.64C3.90667 21.3333 3.8 21.9067 3.8 22.36C3.8 23.0267 4.10667 23.36 4.72 23.36C5.36 23.36 6.08 23.0533 6.88 22.44C7.25333 22.1467 7.6 21.8133 7.92 21.44C8.24 21.0667 8.53333 20.6933 8.8 20.32C9.33333 19.6 9.81333 18.8267 10.24 18C10.6933 17.1467 11.48 15.6 11.48 15.6C11.48 15.6 11.6667 15.36 11.8 15.36C11.9867 15.36 12.1467 15.4533 12.28 15.64C12.4133 15.8267 12.4267 16.0267 12.32 16.24C11.92 17.04 11.4267 17.9867 10.84 19.08C10.2533 20.1467 9.57333 21.1333 8.8 22.04C8.13333 22.8133 7.37333 23.4667 6.52 24C5.69333 24.5067 4.77333 24.76 3.76 24.76ZM9.48 5.24C9.02667 5.24 8.66667 5.09333 8.4 4.8C8.13333 4.48 8 4.06667 8 3.56C8 2.94667 8.16 2.38667 8.48 1.88C8.8 1.37333 9.2 0.96 9.68 0.639999C10.16 0.319999 10.6533 0.159998 11.16 0.159998C11.6133 0.159998 11.9733 0.319999 12.24 0.639999C12.5067 0.933332 12.64 1.30667 12.64 1.76C12.64 2.34667 12.48 2.90667 12.16 3.44C11.84 3.97333 11.44 4.41333 10.96 4.76C10.48 5.08 9.98667 5.24 9.48 5.24Z" fill="#FDFDFD"/>
<path d="M18.7562 25C17.4229 25 16.4096 24.64 15.7162 23.92C15.0229 23.1733 14.6762 22.1467 14.6762 20.84C14.6762 19.2667 14.9029 17.6933 15.3562 16.12C15.8362 14.5467 16.4096 13.0267 17.0762 11.56C17.7696 10.0667 18.4496 8.68 19.1162 7.4C19.8096 6.09333 20.3696 4.94667 20.7962 3.96C21.0362 3.4 21.1562 2.90667 21.1562 2.48C21.1562 1.92 20.9296 1.64 20.4762 1.64C20.1562 1.64 19.6896 1.86667 19.0762 2.32C18.4629 2.74667 17.8762 3.36 17.3162 4.16C16.1162 5.84 15.1962 7.41333 14.5562 8.88C13.9162 10.3467 13.5962 11.5733 13.5962 12.56C13.5962 13.0133 13.6762 13.4 13.8362 13.72C13.8896 13.8 13.9162 13.92 13.9162 14.08C13.9162 14.2933 13.7962 14.4 13.5562 14.4C13.3162 14.4 13.0229 14.2667 12.6762 14C12.2496 13.6533 11.9296 13.2267 11.7162 12.72C11.5296 12.2133 11.4362 11.64 11.4362 11C11.4362 10.12 11.5962 9.18666 11.9162 8.2C12.2629 7.21333 12.7162 6.25333 13.2762 5.32C13.8362 4.36 14.4762 3.52 15.1962 2.8C16.0496 1.94667 16.9829 1.26667 17.9962 0.76C19.0362 0.253334 19.8896 0 20.5562 0C22.2096 0 23.4762 0.333334 24.3562 1C25.2629 1.66667 25.7162 2.48 25.7162 3.44C25.7162 3.76 25.6496 4.12 25.5162 4.52C25.1162 5.69333 24.5696 7.04 23.8762 8.56C23.2096 10.0533 22.5162 11.6 21.7962 13.2C21.1029 14.8 20.5029 16.3467 19.9962 17.84C19.5162 19.3333 19.2762 20.6533 19.2762 21.8C19.2762 22.2267 19.3296 22.5733 19.4362 22.84C19.5696 23.08 19.7696 23.2 20.0362 23.2C20.5962 23.2 21.2362 22.7467 21.9562 21.84C22.6762 20.9067 23.4496 19.6667 24.2762 18.12C25.1029 16.5733 25.9562 14.8667 26.8362 13C27.5296 11.0533 28.1829 9.37333 28.7962 7.96C29.4362 6.52 29.9296 5.53333 30.2762 5C30.7562 4.30667 31.1696 3.85333 31.5162 3.64C31.8629 3.4 32.2496 3.28 32.6762 3.28C33.1296 3.25333 33.7029 3.24 34.3962 3.24C35.1162 3.18667 35.6896 3.22667 36.1162 3.36C36.5429 3.46667 36.6896 3.6 36.5562 3.76C35.6229 4.98667 34.7296 6.42667 33.8762 8.08C33.0496 9.73333 32.3029 11.4267 31.6362 13.16C30.9962 14.8933 30.4896 16.5067 30.1162 18C29.7429 19.4933 29.5562 20.7067 29.5562 21.64C29.5562 22.76 29.8229 23.32 30.3562 23.32C30.9962 23.32 31.6896 22.9333 32.4362 22.16C33.1829 21.36 33.9296 20.3333 34.6762 19.08C35.4496 17.8 36.1829 16.44 36.8762 15C37.1162 14.4933 37.4362 13.7067 37.8362 12.64C38.2362 11.5733 38.6496 10.4 39.0762 9.12C39.5029 7.84 39.8496 6.6 40.1162 5.4C40.4096 4.2 40.5562 3.21333 40.5562 2.44C40.5562 1.53333 40.3296 1.08 39.8762 1.08C39.6629 1.08 39.5562 0.999999 39.5562 0.839999C39.5562 0.759999 39.6096 0.666666 39.7162 0.56C39.8229 0.453333 39.9696 0.386667 40.1562 0.359999C40.6096 0.253333 41.0762 0.200001 41.5562 0.200001C42.8096 0.200001 43.6762 0.573333 44.1562 1.32C44.6362 2.06667 44.8762 2.97333 44.8762 4.04C44.8762 4.92 44.7562 5.85333 44.5162 6.84C44.2762 7.8 43.9962 8.69333 43.6762 9.52C43.1696 10.8267 42.5562 12.1867 41.8362 13.6C41.1162 15.0133 40.3029 16.4 39.3962 17.76C38.4896 19.0933 37.5162 20.3067 36.4762 21.4C35.4629 22.4933 34.4096 23.36 33.3162 24C32.2496 24.64 31.1696 24.96 30.0762 24.96C28.5562 24.96 27.3829 24.52 26.5562 23.64C25.7296 22.7333 25.3029 21.4667 25.2762 19.84C24.3696 21.3067 23.3696 22.5333 22.2762 23.52C21.2096 24.5067 20.0362 25 18.7562 25Z" fill="#FDFDFD"/>
<path d="M45.3694 24.76C44.4094 24.76 43.5427 24.4933 42.7694 23.96C41.996 23.4 41.6094 22.4933 41.6094 21.24C41.6094 20.4133 41.7427 19.4533 42.0094 18.36C42.3027 17.2667 42.6627 16.1467 43.0894 15C43.516 13.8267 43.956 12.7467 44.4094 11.76C44.8894 10.7467 45.316 9.92 45.6894 9.28C46.276 8.34667 46.9294 7.77333 47.6494 7.56C48.396 7.34667 49.3027 7.24 50.3694 7.24C51.1427 7.24 51.7827 7.33333 52.2894 7.52C52.796 7.68 52.876 7.86667 52.5294 8.08C52.0227 8.42667 51.3694 9.2 50.5694 10.4C49.7694 11.6 48.996 12.9467 48.2494 14.44C48.036 14.8667 47.7694 15.44 47.4494 16.16C47.1294 16.8533 46.8094 17.6 46.4894 18.4C46.196 19.1733 45.9427 19.92 45.7294 20.64C45.516 21.3333 45.4094 21.9067 45.4094 22.36C45.4094 23.0267 45.716 23.36 46.3294 23.36C46.9694 23.36 47.6894 23.0533 48.4894 22.44C48.8627 22.1467 49.2094 21.8133 49.5294 21.44C49.8494 21.0667 50.1427 20.6933 50.4094 20.32C50.9427 19.6 51.4227 18.8267 51.8494 18C52.3027 17.1467 52.716 16.3467 53.0894 15.6C53.1694 15.44 53.276 15.36 53.4094 15.36C53.596 15.36 53.756 15.4533 53.8894 15.64C54.0227 15.8267 54.036 16.0267 53.9294 16.24C53.5294 17.04 53.036 17.9867 52.4494 19.08C51.8627 20.1467 51.1827 21.1333 50.4094 22.04C49.7427 22.8133 48.9827 23.4667 48.1294 24C47.3027 24.5067 46.3827 24.76 45.3694 24.76ZM51.0894 5.24C50.636 5.24 50.276 5.09333 50.0094 4.8C49.7427 4.48 49.6094 4.06667 49.6094 3.56C49.6094 2.94667 49.7694 2.38667 50.0894 1.88C50.4094 1.37333 50.8094 0.96 51.2894 0.639999C51.7694 0.319999 52.2627 0.159998 52.7694 0.159998C53.2227 0.159998 53.5827 0.319999 53.8494 0.639999C54.116 0.933332 54.2494 1.30667 54.2494 1.76C54.2494 2.34667 54.0894 2.90667 53.7694 3.44C53.4494 3.97333 53.0494 4.41333 52.5694 4.76C52.0894 5.08 51.596 5.24 51.0894 5.24Z" fill="#FDFDFD"/>
<path d="M56.5656 24.72C54.9389 24.72 53.5923 24.24 52.5256 23.28C51.459 22.32 50.9256 20.9867 50.9256 19.28C50.9256 18.6933 50.9923 18.08 51.1256 17.44C51.259 16.8 51.4723 16.2533 51.7656 15.8C52.059 15.3467 52.4456 15.12 52.9256 15.12C53.219 15.12 53.4323 15.2133 53.5656 15.4C53.8856 14.7867 54.2323 14.1733 54.6056 13.56C54.979 12.9467 55.3523 12.32 55.7256 11.68C56.1523 10.9867 56.6456 10.2267 57.2056 9.4C57.7923 8.54667 58.459 7.8 59.2056 7.16C59.9523 6.49333 60.7656 6.12 61.6456 6.04C61.7523 6.01333 61.859 6 61.9656 6C62.099 6 62.219 6 62.3256 6C62.619 6 62.9256 6.01333 63.2456 6.04C63.5656 6.06667 63.8056 6.09333 63.9656 6.12C64.019 6.14667 64.059 6.22667 64.0856 6.36C64.1123 6.49333 64.0456 6.56 63.8856 6.56C63.779 6.56 63.5656 6.64 63.2456 6.8C62.9256 6.93333 62.7389 7.26667 62.6856 7.8C62.6323 9.66667 62.5123 11.5333 62.3256 13.4C62.1656 15.2667 61.9123 16.8267 61.5656 18.08C61.4056 18.72 61.1523 19.4133 60.8056 20.16C60.459 20.9067 60.0456 21.5733 59.5656 22.16C59.0856 22.7467 58.5789 23.1467 58.0456 23.36C58.5789 23.36 59.139 23.2 59.7256 22.88C60.339 22.5333 60.899 22.12 61.4056 21.64C61.9389 21.16 62.3389 20.7333 62.6056 20.36C63.1923 19.5333 63.7256 18.6667 64.2056 17.76C64.7123 16.8267 65.0856 16.1067 65.3256 15.6C65.4056 15.4667 65.499 15.4 65.6056 15.4C65.739 15.4 65.8589 15.48 65.9656 15.64C66.0723 15.8 66.1256 15.9733 66.1256 16.16C66.1256 16.2133 66.1123 16.2667 66.0856 16.32C66.0856 16.3733 66.0723 16.4267 66.0456 16.48C65.5656 17.44 65.0323 18.4133 64.4456 19.4C63.8856 20.36 63.2323 21.2533 62.4856 22.08C61.739 22.88 60.8856 23.52 59.9256 24C58.9656 24.48 57.8456 24.72 56.5656 24.72ZM53.9656 22.2C54.259 22.2 54.5523 22.1067 54.8456 21.92C55.139 21.7333 55.379 21.44 55.5656 21.04C55.9656 20.16 56.3256 19.1467 56.6456 18C56.9656 16.8533 57.2456 15.72 57.4856 14.6C57.7256 13.4533 57.9256 12.44 58.0856 11.56C58.2723 10.6533 58.4056 10 58.4856 9.6C58.0856 10.08 57.5923 10.76 57.0056 11.64C56.4456 12.52 55.8989 13.4 55.3656 14.28C54.859 15.16 54.4723 15.8667 54.2056 16.4C54.2323 17.0133 53.9923 17.56 53.4856 18.04C52.979 18.52 52.5389 19.0133 52.1656 19.52V19.96C52.1656 20.0667 52.1656 20.2 52.1656 20.36C52.1923 20.52 52.219 20.6667 52.2456 20.8C52.379 21.2267 52.6056 21.5733 52.9256 21.84C53.2723 22.08 53.619 22.2 53.9656 22.2Z" fill="#FDFDFD"/>
<path d="M67.9122 24.68C67.5388 24.68 67.1788 24.64 66.8322 24.56C66.5122 24.5067 66.1255 24.3867 65.6722 24.2C65.0855 23.96 64.6589 23.5467 64.3922 22.96C64.1255 22.3467 63.9922 21.6267 63.9922 20.8C63.9922 19.8133 64.1522 18.72 64.4722 17.52C64.8188 16.32 65.2589 15.1067 65.7922 13.88C66.4055 12.52 67.0988 11.0933 67.8722 9.6C68.6722 8.10667 69.5388 6.74667 70.4722 5.52C71.4322 4.29333 72.4322 3.41333 73.4722 2.88C73.7655 2.72 74.0988 2.61333 74.4722 2.56C74.8455 2.48 75.2188 2.44 75.5922 2.44C76.3122 2.44 76.9922 2.54667 77.6322 2.76C77.8722 2.84 77.9922 2.94667 77.9922 3.08C77.9922 3.16 77.9122 3.26667 77.7522 3.4C77.5655 3.53333 76.9655 4.16 75.9522 5.28C74.9655 6.37333 73.8588 8 72.6322 10.16C72.4988 10.4 72.3122 10.7333 72.0722 11.16C71.8588 11.56 71.6322 11.9733 71.3922 12.4C71.1788 12.8267 70.9922 13.2 70.8322 13.52C70.6722 13.8133 70.5922 13.96 70.5922 13.96C71.2855 12.9467 72.0055 11.9867 72.7522 11.08C73.5255 10.1733 74.2188 9.38666 74.8322 8.72C75.4455 8.02666 75.8722 7.56 76.1122 7.32C76.3255 7.16 76.6722 7.08 77.1522 7.08C77.7122 7.08 78.2855 7.25333 78.8722 7.6C79.4588 7.94666 79.7522 8.57333 79.7522 9.48C79.7522 10.0133 79.6055 10.6533 79.3122 11.4C79.0188 12.1467 78.6855 12.8933 78.3122 13.64C77.9388 14.36 77.6322 14.9867 77.3922 15.52C77.3388 15.6533 77.1922 15.9733 76.9522 16.48C76.7122 16.9867 76.4588 17.5733 76.1922 18.24C75.9255 18.9067 75.6855 19.5733 75.4722 20.24C75.2855 20.88 75.1922 21.4133 75.1922 21.84C75.1922 22.3733 75.3655 22.64 75.7122 22.64C75.9522 22.64 76.2455 22.4933 76.5922 22.2C76.9388 21.88 77.2588 21.5467 77.5522 21.2C77.8722 20.8267 78.0988 20.5467 78.2322 20.36C78.7922 19.5867 79.2988 18.76 79.7522 17.88C80.2322 17 80.6188 16.2667 80.9122 15.68C81.0188 15.4933 81.1522 15.4 81.3122 15.4C81.4988 15.4 81.6588 15.48 81.7922 15.64C81.9255 15.8 81.9388 15.9867 81.8322 16.2C81.4055 17.0533 80.8722 18.0267 80.2322 19.12C79.6188 20.1867 78.9655 21.16 78.2722 22.04C77.7388 22.7067 77.1255 23.3067 76.4322 23.84C75.7388 24.3467 75.0055 24.6 74.2322 24.6C73.1122 24.6 72.3255 24.2533 71.8722 23.56C71.4455 22.8667 71.2322 21.96 71.2322 20.84C71.2322 19.96 71.3522 19.08 71.5922 18.2C71.8588 17.32 72.1522 16.44 72.4722 15.56C72.8188 14.6 73.1522 13.7333 73.4722 12.96C73.8188 12.1867 74.0855 11.6667 74.2722 11.4C73.7122 11.8 73.0722 12.4267 72.3522 13.28C71.6588 14.1067 70.9922 15.0667 70.3522 16.16C69.7122 17.2533 69.1788 18.36 68.7522 19.48C68.3255 20.6 68.1122 21.64 68.1122 22.6C68.1122 23.2667 68.2588 23.7733 68.5522 24.12C68.6322 24.2 68.6722 24.28 68.6722 24.36C68.6722 24.5733 68.4188 24.68 67.9122 24.68Z" fill="#FDFDFD"/>
</svg>
